<?xml version="1.0" encoding="utf-8"?>
<!-- Generator: Adobe Illustrator 19.1.0, SVG Export Plug-In . SVG Version: 6.00 Build 0)  -->
<svg version="1.1" id="Layer_1" xmlns="http://www.w3.org/2000/svg" xmlns:xlink="http://www.w3.org/1999/xlink" x="0px" y="0px"
	 viewBox="-19.2 360.7 127.1 76.3" style="enable-background:new -19.2 360.7 127.1 76.3;" xml:space="preserve">
<style type="text/css">
	.st0{fill:#FFFFFF;}
</style>
<g>
	<path class="st0" d="M-19.2,398.3c0-3.7,1-7.3,2.8-10.7v21.3C-18.2,405.6-19.2,402-19.2,398.3z"/>
	<path class="st0" d="M12.1,367.2v16.4H3.8l-13.9,12v-11.9h-3.6c0,0,0,0,0-0.1C-8.3,376.8,0.8,371,12.1,367.2z"/>
	<path class="st0" d="M12.1,398c0,0.5,0,1.1,0,1.6v9.9l-0.3-0.2l-14.6-12.8l14.6-12.3L12,384v14H12.1z"/>
	<path class="st0" d="M5.4,411.6h6.7v17.7c-12-4-21.5-10.3-26.7-17.7h4.5V398L5.4,411.6z"/>
	<path class="st0" d="M43.3,411.5V437c-10.4-0.1-20.3-1.6-28.9-4.2v-25.1c0.9,1.2,2.1,2.2,3.8,3c5.6,2.6,16.7,2.1,22.4-2.4l0,0v3.2
		l0,0v-3.2l0,0v3.2H43.3z"/>
	<path class="st0" d="M43.3,365v18.6h-2.6v12.7c0,1.1,0,2.1,0,3v-15.7l0,0v12.7c0,1.1,0,2.1,0,3c-0.1,2.7-0.8,5-4.4,6.8
		c-3.6,1.9-9.9,2-12.9,0.5c-4.1-1.9-3.8-5.5-3.8-8.7v-14.4h-5.2v-14.4C23,366.6,32.9,365.1,43.3,365z"/>
	<path class="st0" d="M74.5,365v22.5c-0.9-1.2-2.1-2.2-3.8-3c-5.6-2.6-16.6-2.1-22.4,2.4l0,0l0,0l0,0v-3.2h-2.6v-23
		C56,360.8,65.9,362.4,74.5,365z"/>
	<path class="st0" d="M74.5,411.5v16.9c-8.6,2.6-18.4,4.2-28.9,4.3v-21.2h2.6v-12.7c0-1.1,0-2.1,0-3c0.1-2.7,0.8-5,4.4-6.9
		c3.6-1.9,9.9-2,13-0.5c4.1,1.9,3.8,5.5,3.8,8.7v14.4H74.5z"/>
	<path class="st0" d="M77,391.5c-0.1,0.2-0.1,0.3-0.2,0.5v-24.7c12.4,4.2,22.1,10.7,27.2,18.5c-0.6-0.4-1.2-0.8-1.9-1.1
		c-4.7-2.3-13.7-2.5-18.5-0.1C80.3,386.3,78.2,388.7,77,391.5z"/>
	<path class="st0" d="M98.8,411.2c2.7-0.6,5.2-2.1,7.3-4.3c-4.1,9.5-14.8,17.5-29.3,22.4v-17.8l0,0v-8.9c0,0.1,0.1,0.3,0.2,0.4
		c0.7,1.8,1.9,3.4,3.3,4.8C85.5,412.9,94.5,412.2,98.8,411.2z"/>
	<path class="st0" d="M107.9,398.3c0,1.4-0.1,2.8-0.4,4.1h-5.4c-0.7,1.5-1.9,2.9-3.7,3.9c-2.4,1.5-7.1,1.4-9.5,0.4
		c-3.5-1.5-5.4-4.5-6-7.4c-0.5-2.7-0.2-6.8,3-9.8c2.7-2.4,6.9-2.9,9.7-2.2c3.4,0.7,4.8,2.2,6.2,5h5.1
		C107.6,394.2,107.9,396.2,107.9,398.3z"/>
	<path class="st0" d="M40.7,411.5L40.7,411.5h2.6l0,0H40.7z M48.2,398.9v12.7h-2.6l0,0h2.6v-15.7C48.2,396.8,48.2,397.8,48.2,398.9z
		 M48.2,383.6v3.2l0,0V383.6L48.2,383.6z"/>
	<path class="st0" d="M45.6,383.6L45.6,383.6h2.6l0,0H45.6z M43.3,383.6L43.3,383.6h-2.6v15.7c0-1,0-2,0-3v-12.7
		C40.7,383.6,43.3,383.6,43.3,383.6z M40.7,408.3v3.2l0,0V408.3L40.7,408.3z"/>
	<polygon class="st0" points="40.7,408.3 40.7,408.3 40.7,411.5 40.7,411.5 	"/>
	<path class="st0" d="M40.7,396.3c0,1.1,0,2.1,0,3v-15.7l0,0V396.3z"/>
	<polygon class="st0" points="48.2,386.8 48.2,386.8 48.2,386.9 	"/>
</g>
</svg>
