<?xml version="1.0" encoding="utf-8"?>
<!-- Generator: Adobe Illustrator 19.1.0, SVG Export Plug-In . SVG Version: 6.00 Build 0)  -->
<svg version="1.1" id="Layer_1" xmlns="http://www.w3.org/2000/svg" xmlns:xlink="http://www.w3.org/1999/xlink" x="0px" y="0px"
	 viewBox="-19.1 360.7 127 76.4" style="enable-background:new -19.1 360.7 127 76.4;" xml:space="preserve">
<style type="text/css">
	.st0{fill:#4F8ABE;}
	.st1{fill:#DF8C19;}
	.st2{fill:#727A35;}
	.st3{fill:#E7A614;}
	.st4{fill:#FFFFFF;}
</style>
<g>
	<path class="st0" d="M12.1,367.2v62.1c-12-4-21.5-10.3-26.7-17.7c0,0,0,0,0-0.1c-0.4-0.6-0.8-1.2-1.2-1.8c-0.2-0.3-0.3-0.5-0.5-0.8
		c-1.8-3.4-2.8-6.9-2.8-10.6s1-7.3,2.8-10.7c0.2-0.3,0.3-0.5,0.5-0.8c0.6-1.1,1.3-2.1,2.2-3.1c0,0,0,0,0-0.1
		C-8.3,376.8,0.8,371,12.1,367.2z"/>
	<path class="st1" d="M43.3,365v72.1c-10.4-0.1-20.3-1.6-28.9-4.2v-63.6C23,366.6,32.9,365.1,43.3,365z"/>
	<path class="st2" d="M74.5,365c-8.6-2.6-18.4-4.2-28.9-4.3v72.1c10.4-0.1,20.3-1.7,28.9-4.3V365z"/>
	<path class="st3" d="M107.9,398.3c0,1.4-0.1,2.8-0.4,4.1c-0.2,1.2-0.6,2.4-1.1,3.6c-0.1,0.3-0.2,0.6-0.3,0.9
		c-4.1,9.5-14.8,17.5-29.3,22.4v-62c12.4,4.2,22.1,10.7,27.2,18.5c0.1,0.2,0.2,0.3,0.3,0.5c1.2,1.9,2.1,3.9,2.7,5.9
		C107.6,394.2,107.9,396.2,107.9,398.3z"/>
	<path class="st4" d="M12.3,383.6v0.1l0.2-0.1H12.3z M48.2,383.6v3.2l0,0V383.6L48.2,383.6z M48.2,398.9v12.7h-7.5l0,0h7.5v-15.7
		C48.2,396.8,48.2,397.8,48.2,398.9z"/>
	<path class="st4" d="M40.7,408.3v3.2l0,0V408.3L40.7,408.3z M40.7,383.6v15.7c0-1,0-2,0-3V383.6h7.5l0,0H40.7z"/>
	<path class="st4" d="M107.5,402.4c-0.2,1.2-0.6,2.4-1.1,3.6c-0.1,0.3-0.2,0.6-0.3,0.9c-2,2.2-4.6,3.7-7.3,4.3
		c-4.3,1-13.3,1.7-18.5-3.3c-1.5-1.4-2.6-3-3.3-4.8c-0.1-0.1-0.1-0.3-0.2-0.4v8.9h-7.5v-14.4c0-3.2,0.3-6.7-3.8-8.7
		c-3-1.5-9.4-1.4-13,0.5c-3.6,1.9-4.2,4.2-4.4,6.9c0,1,0,2,0,3v12.7h-7.5v-3.2l0,0c-5.8,4.5-16.9,5-22.4,2.4c-1.7-0.8-2.9-1.8-3.8-3
		c-0.1-0.1-0.2-0.2-0.2-0.3c-1.5-2.2-2-4.9-2.1-7.8c0-0.5,0-1.1,0-1.6V384l-0.2,0.2l-14.6,12.3l14.6,12.8l0.3,0.2l2.1,1.8v0.4H5.6
		L-10.1,398v13.6h-4.5c0,0,0,0,0-0.1c-0.4-0.6-0.8-1.2-1.2-1.8c-0.2-0.3-0.3-0.5-0.5-0.8v-21.3c0.2-0.3,0.3-0.5,0.5-0.8
		c0.6-1.1,1.3-2.1,2.2-3.1h3.6v11.9l13.9-12h15.7V398c0,3.2-0.3,6.7,3.8,8.7c3,1.5,9.4,1.4,12.9-0.5c3.6-1.9,4.3-4.2,4.4-6.8
		c0-1,0-2,0-3v-12.7h7.5v3.2l0,0l0,0l0,0l0,0c5.8-4.5,16.9-5,22.4-2.4c1.7,0.8,2.9,1.8,3.8,3c0.1,0.1,0.1,0.1,0.2,0.2
		c1.1,1.5,1.6,3.2,1.9,5c0.1-0.3,0.2-0.5,0.3-0.7s0.1-0.3,0.2-0.5c1.2-2.8,3.3-5.3,6.6-6.9c4.9-2.4,13.8-2.2,18.5,0.1
		c0.7,0.3,1.3,0.7,1.9,1.1c0.1,0.2,0.2,0.3,0.3,0.5c1.2,1.9,2.1,3.9,2.7,5.9h-5.1c-1.4-2.8-2.8-4.2-6.2-5c-2.8-0.7-7.1-0.2-9.7,2.2
		c-3.2,3-3.5,7.1-3,9.8c0.5,2.9,2.4,5.9,6,7.4c2.4,1,7.1,1.2,9.5-0.4c1.7-1,3-2.4,3.7-3.9h5.3V402.4z"/>
</g>
</svg>
